<?xml version="1.0" encoding="utf-8"?>
<!-- Generator: Adobe Illustrator 21.1.0, SVG Export Plug-In . SVG Version: 6.00 Build 0)  -->
<svg version="1.1" id="Layer_1" xmlns="http://www.w3.org/2000/svg" xmlns:xlink="http://www.w3.org/1999/xlink" x="0px" y="0px"
	 viewBox="0 0 240 126" style="enable-background:new 0 0 240 126;" xml:space="preserve">
<style type="text/css">
	.st0{fill:#007166;}
	.st1{fill:#00AD68;}
	.st2{fill:#F6B221;}
	.st3{fill:#435363;}
	.st4{fill:#A4D55D;}
	.st5{fill:#8E9090;}
</style>
<g>
	<g>
		<polygon class="st0" points="189.6,0.7 124.6,125.3 170.9,125.3 236,0.7 		"/>
		<polygon class="st1" points="124,125.3 170.3,125.3 137.6,63.6 91.3,63.6 		"/>
		<polygon class="st2" points="121.3,32.7 74.9,32.7 87.3,56.2 133.7,56.2 		"/>
	</g>
	<g>
		<g>
			<g>
				<g>
					<path class="st3" d="M11.5,40.8h1.9c0.3,0,0.5-0.1,0.7-0.3s0.3-0.4,0.3-0.7v-2.3c0-0.3-0.1-0.5-0.3-0.7s-0.4-0.3-0.7-0.3h-1.9
						c-0.3,0-0.5,0.1-0.7,0.3s-0.3,0.4-0.3,0.7v2.3c0,0.3,0.1,0.5,0.3,0.7C10.9,40.7,11.2,40.8,11.5,40.8z"/>
					<path class="st3" d="M50.4,60.5c0-0.2-0.1-0.4-0.2-0.6l-1.8-4.6L48,54.2c-0.8-2-1.7-3.7-2.7-5s-2-2.3-3.1-3s-2.3-1.2-3.6-1.5
						s-2.6-0.4-4.1-0.4c-0.5,0-1.2,0-2,0.1s-1.5,0.2-2.1,0.3c-0.3,0.1-0.5,0.2-0.6,0.3s-0.2,0.3-0.2,0.5v1.8c0,0.5,0.3,0.7,1,0.6
						c0.2,0,0.5,0,0.8-0.1c0.3,0,0.6,0,0.9-0.1c0.3,0,0.6,0,0.8-0.1c0.2,0,0.4,0,0.5,0c2.7,0,4.9,0.5,6.4,1.6
						c1.6,1.1,2.8,2.7,3.8,4.9l1,2.3l1.6,3.7H26.6h-0.3h-7h-4.1h-1.1V47.3c0-0.2-0.1-0.4-0.2-0.6c-0.1-0.2-0.3-0.2-0.5-0.2h-2.1
						c-0.2,0-0.4,0.1-0.6,0.2c-0.1,0.2-0.2,0.4-0.2,0.6v19.2c0,1-0.1,1.7-0.2,2.3c-0.1,0.6-0.4,1-0.8,1.3c-0.4,0.3-0.9,0.5-1.5,0.6
						s-1.4,0.1-2.3,0.1H4.8c-0.5,0-0.7,0.2-0.7,0.6v1.9c0,0.2,0,0.4,0.1,0.5S4.5,74,4.8,74c0.2-0.1,0.6-0.1,1.1,0c0.5,0,0.8,0,0.9,0
						c1.7,0,3-0.2,4-0.6s1.8-1.1,2.4-2.1c0.3-0.6,0.5-1.3,0.6-2c0.1-0.8,0.2-1.6,0.2-2.6v-2.8h1.1h4.1h7h0.3h22.6
						c0.5,0,0.8-0.1,1-0.3s0.3-0.4,0.3-0.8v-1.6C50.5,61,50.5,60.7,50.4,60.5z"/>
				</g>
				<g>
					<path class="st3" d="M65.4,40.8h1.9c0.3,0,0.5-0.1,0.7-0.3s0.3-0.4,0.3-0.7v-2.3c0-0.3-0.1-0.5-0.3-0.7
						c-0.2-0.2-0.4-0.3-0.7-0.3h-1.9c-0.3,0-0.5,0.1-0.7,0.3s-0.3,0.4-0.3,0.7v2.3c0,0.3,0.1,0.5,0.3,0.7
						C64.9,40.7,65.1,40.8,65.4,40.8z"/>
					<path class="st3" d="M68.3,49.7c0-0.7,0-1.5-0.1-2.5c0-0.2-0.1-0.4-0.2-0.6c-0.1-0.2-0.3-0.2-0.6-0.2h-2.1
						c-0.2,0-0.4,0.1-0.5,0.2c-0.1,0.2-0.2,0.4-0.2,0.6c0,1.1,0.1,2.2,0.1,3.1c0,1,0,1.9,0,2.8c0,0.9,0,1.8,0,2.7s0,1.8,0,2.9
						c0,0.7-0.1,1.2-0.3,1.3c-0.2,0.1-0.8,0.2-1.6,0.2h-0.2h-1.1c-0.5,0-0.9,0-1.2-0.1c-0.4-0.1-0.7-0.2-0.9-0.3
						c-0.2-0.2-0.4-0.4-0.6-0.8c-0.1-0.3-0.2-0.8-0.2-1.4V33.5c0-0.2-0.1-0.4-0.2-0.6c-0.2-0.2-0.3-0.3-0.6-0.3h-2.1
						c-0.2,0-0.4,0.1-0.6,0.3c-0.2,0.2-0.2,0.4-0.2,0.6v24.9c0,1.1,0.1,2,0.4,2.7c0.2,0.7,0.6,1.2,1.1,1.7c0.5,0.4,1.1,0.7,1.8,0.9
						c0.2,0.1,0.5,0.1,0.8,0.1c0.3,0.1,0.5,0.1,0.9,0.1h0.8h1.2h0.8l0,0c0.2,0,0.5,0,0.7,0c0.5,0,1.1,0,1.6-0.1c0.5,0,1-0.1,1.4-0.1
						s0.7-0.1,0.9-0.2c0.3-0.1,0.6-0.3,0.7-0.5s0.2-0.5,0.3-0.7c0.1-0.7,0.1-1.6,0.2-2.8c0-1.2,0-2.5,0-3.9c0-0.9,0-1.6,0-2.2
						c0-0.6,0-1.2,0-1.8C68.4,51,68.4,50.3,68.3,49.7z"/>
				</g>
			</g>
			<g>
				<path class="st3" d="M22.3,99.5c0,0.2-0.1,0.4-0.3,0.6c-0.2,0.2-0.4,0.3-0.6,0.3h-2.1c-0.2,0-0.4-0.1-0.6-0.3
					c-0.2-0.2-0.3-0.4-0.3-0.6V85.2c0-1.1-0.1-2-0.3-2.7c-0.2-0.7-0.5-1.3-0.9-1.7c-0.4-0.4-0.9-0.7-1.5-0.9
					c-0.6-0.2-1.3-0.3-2.1-0.3c-0.9,0-1.9,0.2-2.9,0.5s-2,0.7-3,1.2v18.3c0,0.2-0.1,0.4-0.3,0.6c-0.2,0.2-0.4,0.3-0.6,0.3H4.9
					c-0.2,0-0.4-0.1-0.6-0.3C4.1,99.9,4,99.7,4,99.5V77.4c0-0.2,0.1-0.4,0.2-0.6c0.2-0.2,0.3-0.3,0.6-0.3H7c0.2,0,0.4,0.1,0.6,0.3
					c0.2,0.2,0.2,0.4,0.2,0.6v0.8c1.2-0.7,2.3-1.2,3.4-1.5c1-0.3,2.2-0.5,3.5-0.5c2.6,0,4.5,0.8,5.7,2.3c1.2,1.6,1.8,3.8,1.8,6.7
					v14.3H22.3z"/>
				<path class="st3" d="M44.7,99.5c0,0.2-0.1,0.4-0.3,0.6s-0.4,0.3-0.6,0.3h-2c-0.2,0-0.4-0.1-0.6-0.3c-0.2-0.2-0.3-0.4-0.3-0.6v-1
					c-1,0.6-2.1,1.1-3.2,1.5c-1.1,0.4-2.2,0.6-3.5,0.6c-0.9,0-1.8-0.1-2.7-0.3c-0.9-0.2-1.6-0.6-2.3-1.1c-0.6-0.5-1.2-1.3-1.6-2.2
					c-0.4-0.9-0.6-2-0.6-3.4v-0.5c0-1.2,0.2-2.2,0.5-3.1c0.4-0.9,1-1.6,1.8-2.2s1.9-1,3.2-1.3c1.3-0.3,3-0.4,4.9-0.4h3.2v-1.7
					c0-1.8-0.3-3.1-1-3.8c-0.7-0.7-1.9-1.1-3.6-1.1c-1.4,0-2.7,0-3.7,0.1c-1.1,0.1-2,0.2-2.9,0.2h-0.2c-0.2,0-0.4,0-0.5-0.1
					c-0.2-0.1-0.2-0.3-0.2-0.6v-1.5c0-0.5,0.3-0.7,0.9-0.8c0.9-0.1,1.9-0.3,2.9-0.4c1-0.1,2.3-0.2,3.8-0.2c3,0,5.2,0.7,6.5,2.2
					c1.3,1.4,2,3.4,2,6L44.7,99.5L44.7,99.5z M40.9,88.8h-3.2c-1.3,0-2.4,0.1-3.2,0.2c-0.9,0.2-1.5,0.4-2,0.7
					c-0.5,0.3-0.8,0.8-1,1.3s-0.3,1.2-0.3,2v0.5c0,1.6,0.3,2.6,1,3.1s1.7,0.8,2.9,0.8c1,0,2-0.1,2.9-0.4s1.9-0.7,2.9-1.3
					C40.9,95.7,40.9,88.8,40.9,88.8z"/>
				<path class="st3" d="M54.5,100.1c0,1.1-0.1,2.1-0.4,2.8c-0.2,0.7-0.6,1.3-1,1.8c-0.4,0.4-1,0.8-1.7,0.9
					c-0.7,0.2-1.5,0.3-2.3,0.3c-0.4,0-0.8,0-1.2,0c-0.3,0-0.7-0.1-1.2-0.1c-0.5-0.1-0.8-0.3-0.8-0.7v-1.6c0-0.4,0.3-0.6,0.9-0.6h1.8
					c0.8,0,1.4-0.2,1.6-0.5c0.3-0.3,0.4-1.1,0.4-2.2V77.4c0-0.2,0.1-0.4,0.2-0.6c0.1-0.2,0.3-0.3,0.6-0.3h2.3c0.2,0,0.4,0.1,0.6,0.3
					c0.1,0.2,0.2,0.4,0.2,0.6C54.5,77.4,54.5,100.1,54.5,100.1z"/>
				<path class="st3" d="M65.1,99.5c0,0.2-0.1,0.4-0.3,0.6c-0.2,0.2-0.4,0.3-0.6,0.3h-2.1c-0.2,0-0.4-0.1-0.6-0.3
					c-0.2-0.2-0.3-0.4-0.3-0.6V77.4c0-0.2,0.1-0.4,0.3-0.6s0.4-0.3,0.6-0.3h2.1c0.2,0,0.4,0.1,0.6,0.3c0.2,0.2,0.3,0.4,0.3,0.6V99.5
					z"/>
				<path class="st3" d="M87.7,99.5c0,0.2-0.1,0.4-0.3,0.6c-0.2,0.2-0.4,0.3-0.6,0.3h-13c-0.9,0-1.6-0.2-2-0.7s-0.6-1-0.6-1.6v-0.8
					c0-0.6,0.1-1.1,0.2-1.5s0.4-0.8,0.8-1.3l11.2-13.9c0.1-0.2,0.2-0.3,0.2-0.4c0-0.2-0.1-0.3-0.4-0.3H72.5c-0.2,0-0.4-0.1-0.6-0.3
					c-0.2-0.2-0.3-0.4-0.3-0.6v-1.5c0-0.2,0.1-0.4,0.3-0.6c0.2-0.2,0.4-0.3,0.6-0.3h12.7c0.9,0,1.5,0.2,1.9,0.6s0.5,0.9,0.5,1.6v1
					c0,0.5-0.1,0.9-0.2,1.2c-0.2,0.4-0.4,0.7-0.8,1.1L75.3,96.3c-0.1,0.1-0.2,0.3-0.2,0.5s0.1,0.3,0.3,0.3h11.4
					c0.2,0,0.4,0.1,0.6,0.3c0.2,0.2,0.3,0.4,0.3,0.6L87.7,99.5L87.7,99.5z"/>
			</g>
			<g>
				<g>
					<path class="st1" d="M50.6,68.9c0-0.3,0.1-0.5,0.3-0.7s0.4-0.3,0.7-0.3h1.9c0.3,0,0.5,0.1,0.7,0.3c0.2,0.2,0.3,0.4,0.3,0.7v2.3
						c0,0.2-0.1,0.4-0.3,0.6s-0.4,0.3-0.7,0.3h-1.9c-0.3,0-0.5-0.1-0.7-0.3c-0.2-0.2-0.3-0.4-0.3-0.6V68.9z"/>
					<path class="st4" d="M61.3,68.9c0-0.3,0.1-0.5,0.3-0.7s0.4-0.3,0.7-0.3h1.9c0.3,0,0.5,0.1,0.7,0.3c0.2,0.2,0.3,0.4,0.3,0.7v2.3
						c0,0.2-0.1,0.4-0.3,0.6c-0.2,0.2-0.4,0.3-0.7,0.3h-1.9c-0.3,0-0.5-0.1-0.7-0.3c-0.2-0.2-0.3-0.4-0.3-0.6
						C61.3,71.2,61.3,68.9,61.3,68.9z"/>
				</g>
				<g>
					<path class="st0" d="M40,68.9c0-0.3,0.1-0.5,0.3-0.7s0.4-0.3,0.7-0.3h1.9c0.3,0,0.5,0.1,0.7,0.3c0.2,0.2,0.3,0.4,0.3,0.7v2.3
						c0,0.2-0.1,0.4-0.3,0.6s-0.4,0.3-0.7,0.3H41c-0.3,0-0.5-0.1-0.7-0.3c-0.2-0.2-0.3-0.4-0.3-0.6V68.9z"/>
				</g>
			</g>
			<path class="st3" d="M65.1,99.5c0,0.2-0.1,0.4-0.3,0.6c-0.2,0.2-0.4,0.3-0.6,0.3h-2.1c-0.2,0-0.4-0.1-0.6-0.3
				c-0.2-0.2-0.3-0.4-0.3-0.6V77.4c0-0.2,0.1-0.4,0.3-0.6s0.4-0.3,0.6-0.3h2.1c0.2,0,0.4,0.1,0.6,0.3c0.2,0.2,0.3,0.4,0.3,0.6V99.5z
				"/>
		</g>
		<g>
			<path class="st5" d="M8.8,114.8H5.4c-0.5,0-1-0.2-1.3-0.6s-0.6-0.8-0.6-1.3v-0.7c0-0.5,0.2-1,0.6-1.3s0.8-0.6,1.3-0.6
				c0.5,0,1,0.2,1.3,0.6s0.6,0.8,0.6,1.3v1.9h1.4V114.8z M5.4,114.1h1.2v-1.9c0-0.7-0.6-1.2-1.2-1.2s-1.2,0.6-1.2,1.2v0.7
				C4.2,113.5,4.8,114.1,5.4,114.1z M4.4,109.3v-0.5c0-0.1,0-0.1,0.1-0.1h0.5c0.1,0,0.1,0,0.1,0.1v0.5c0,0.1,0,0.1-0.1,0.1H4.5
				C4.4,109.4,4.4,109.4,4.4,109.3z M5.6,109.3v-0.5c0-0.1,0-0.1,0.1-0.1h0.4c0.1,0,0.1,0,0.1,0.1v0.5c0,0.1,0,0.1-0.1,0.1H5.7
				C5.6,109.4,5.6,109.4,5.6,109.3z"/>
			<path class="st5" d="M10.1,113.6v-3c0-0.1,0-0.1,0.1-0.1h0.4c0.1,0,0.1,0,0.1,0.1v3.2c0,0.1,0,0.2,0.1,0.2
				c0.1,0.1,0.3,0.1,0.5,0.1h0.4v0.7h-0.3c-0.4,0-0.8-0.1-1-0.3c0,0,0,0,0,0c0,0,0,0,0,0c-0.2,0.2-0.5,0.3-0.8,0.3H8.3v-0.7h1.4
				C10,114.1,10.1,113.9,10.1,113.6z M9.8,115.7v0.5c0,0.1,0,0.1-0.1,0.1H9.2c-0.1,0-0.1,0-0.1-0.1v-0.5c0-0.1,0-0.1,0.1-0.1h0.5
				C9.8,115.6,9.8,115.7,9.8,115.7z M11,115.7v0.5c0,0.1,0,0.1-0.1,0.1h-0.4c-0.1,0-0.1,0-0.1-0.1v-0.5c0-0.1,0-0.1,0.1-0.1h0.4
				C11,115.6,11,115.7,11,115.7z"/>
			<path class="st5" d="M13.4,113.6v-3c0-0.1,0-0.1,0.1-0.1H14c0.1,0,0.1,0,0.1,0.1v3c0,0.7-0.5,1.1-1.2,1.1h-1.4v-0.7H13
				C13.3,114.1,13.4,114,13.4,113.6z M14.1,108.8v0.5c0,0.1,0,0.1-0.1,0.1h-0.4c-0.1,0-0.1,0-0.1-0.1v-0.5c0-0.1,0-0.1,0.1-0.1H14
				C14.1,108.6,14.1,108.7,14.1,108.8z"/>
			<path class="st5" d="M18.4,114.9v-0.1h-1.2c-0.5,0-1-0.2-1.3-0.6s-0.6-0.8-0.6-1.3v-0.7c0-0.5,0.2-1,0.6-1.3s0.8-0.6,1.3-0.6
				c0.5,0,1,0.2,1.3,0.6s0.6,0.8,0.6,1.3v2.7c0,0.5-0.2,0.9-0.5,1.2c-0.4,0.4-0.8,0.5-1.3,0.5h-0.9c-0.1,0-0.1,0-0.1-0.1v-0.4
				c0-0.1,0-0.1,0.1-0.1h0.9C17.9,116,18.4,115.5,18.4,114.9z M17.1,114.1h1.2v-1.9c0-0.7-0.6-1.2-1.2-1.2s-1.2,0.6-1.2,1.2v0.7
				C15.9,113.5,16.5,114.1,17.1,114.1z"/>
			<path class="st5" d="M20.9,115.1v-4.5c0-0.1,0-0.1,0.1-0.1h0.4c0.1,0,0.1,0,0.1,0.1v3.5H23v0.7h-1.4v0.3c0,1-0.6,1.5-1.5,1.5
				h-0.5c-0.1,0-0.1,0-0.1-0.1v-0.4c0-0.1,0-0.1,0.1-0.1H20C20.6,116,20.9,115.7,20.9,115.1z"/>
			<path class="st5" d="M24.5,113.6v-3c0-0.1,0-0.1,0.1-0.1h0.4c0.1,0,0.1,0,0.1,0.1v3.2c0,0.1,0,0.2,0.1,0.2
				c0.1,0.1,0.3,0.1,0.5,0.1h0.4v0.7h-0.3c-0.4,0-0.8-0.1-1-0.3c0,0,0,0,0,0l0,0c-0.2,0.2-0.5,0.3-0.8,0.3h-1.5v-0.7h1.6
				C24.4,114.1,24.5,113.9,24.5,113.6z M23.9,109.3v-0.5c0-0.1,0-0.1,0.1-0.1h0.5c0.1,0,0.1,0,0.1,0.1v0.5c0,0.1,0,0.1-0.1,0.1h-0.5
				C24,109.4,23.9,109.4,23.9,109.3z M25.1,109.3v-0.5c0-0.1,0-0.1,0.1-0.1h0.4c0.1,0,0.1,0,0.1,0.1v0.5c0,0.1,0,0.1-0.1,0.1h-0.4
				C25.2,109.4,25.1,109.4,25.1,109.3z"/>
			<path class="st5" d="M29.5,108.6h0.7c0.1,0,0.1,0,0.1,0.1v0.4c0,0.1,0,0.1-0.1,0.1h-0.7c-0.9,0-1.5,0.5-1.6,1.5h1.7
				c0.6,0,1.1,0.2,1.4,0.6s0.6,0.9,0.6,1.5v1c0,0.1,0,0.2,0.1,0.2c0.1,0.1,0.3,0.1,0.5,0.1h0.5v0.7h-0.4c-0.4,0-0.8-0.1-1-0.3l0,0
				c-0.2,0.2-0.5,0.4-0.9,0.4H26v-0.7h4.4c0.3,0,0.5-0.2,0.5-0.5v-0.8c0-0.8-0.5-1.4-1.3-1.4h-2c-0.2,0-0.3-0.2-0.3-0.3
				C27.2,109.6,28,108.6,29.5,108.6z"/>
			<path class="st5" d="M33.9,113.6v-5.2c0-0.1,0-0.1,0.1-0.1h0.4c0.1,0,0.1,0,0.1,0.1v5.2c0,0.7-0.5,1.1-1.1,1.1h-1v-0.7h1h0
				C33.8,114.1,33.9,113.9,33.9,113.6z"/>
			<path class="st5" d="M39.4,113.2v-4.8c0-0.1,0-0.1,0.1-0.1h0.4c0.1,0,0.1,0,0.1,0.1v4.8c0,1-0.6,1.5-1.5,1.5h-2.7
				c-0.1,0-0.1,0-0.1-0.1v-0.4c0-0.1,0-0.1,0.1-0.1h2.7C39.1,114.1,39.4,113.8,39.4,113.2z M37.3,116.1v0.5h0.9c0.1,0,0.1,0,0.1,0.1
				v0.2c0,0.1,0,0.1-0.1,0.1h-1.5c-0.1,0-0.1,0-0.1-0.1v-0.2c0-0.1,0-0.1,0.1-0.1h0.3v-0.5c0-0.4,0.3-0.7,0.7-0.7
				c0.3,0,0.5,0.1,0.6,0.4l0,0.1c0,0,0,0,0,0c0,0,0,0.1-0.1,0.1l-0.2,0.1c0,0,0,0,0,0c0,0-0.1,0-0.1-0.1l0-0.1
				c-0.1-0.1-0.2-0.2-0.3-0.2C37.4,115.8,37.3,115.9,37.3,116.1z M37.1,113.2v-4.1c0-0.1,0-0.1,0.1-0.1h0.4c0.1,0,0.1,0,0.1,0.1v4.1
				c0,0.1,0,0.1-0.1,0.1h-0.4C37.1,113.4,37.1,113.3,37.1,113.2z"/>
			<path class="st5" d="M42,114.8h-0.4c-0.1,0-0.1,0-0.1-0.1v-6.3c0-0.1,0-0.1,0.1-0.1H42c0.1,0,0.1,0,0.1,0.1v6.3
				C42.1,114.7,42.1,114.8,42,114.8z"/>
			<path class="st5" d="M50.7,114.8h-3.3c-0.5,0-1-0.2-1.3-0.6s-0.6-0.8-0.6-1.3v-0.7c0-0.5,0.2-1,0.6-1.3s0.8-0.6,1.3-0.6
				s1,0.2,1.3,0.6c0.4,0.4,0.6,0.8,0.6,1.3v1.9h1.4V114.8z M47.4,114.1h1.2v-1.9c0-0.7-0.6-1.2-1.2-1.2c-0.7,0-1.2,0.6-1.2,1.2v0.7
				C46.2,113.5,46.7,114.1,47.4,114.1z M46.3,109.3v-0.5c0-0.1,0-0.1,0.1-0.1h0.5c0.1,0,0.1,0,0.1,0.1v0.5c0,0.1,0,0.1-0.1,0.1h-0.5
				C46.4,109.4,46.3,109.4,46.3,109.3z M47.5,109.3v-0.5c0-0.1,0-0.1,0.1-0.1h0.4c0.1,0,0.1,0,0.1,0.1v0.5c0,0.1,0,0.1-0.1,0.1h-0.4
				C47.6,109.4,47.5,109.4,47.5,109.3z"/>
			<path class="st5" d="M52.1,113.6v-3c0-0.1,0-0.1,0.1-0.1h0.4c0.1,0,0.1,0,0.1,0.1v3.2c0,0.1,0,0.2,0.1,0.2
				c0.1,0.1,0.3,0.1,0.5,0.1h0.4v0.7h-0.3c-0.4,0-0.8-0.1-1-0.3c0,0,0,0,0,0c0,0,0,0,0,0c-0.2,0.2-0.5,0.3-0.8,0.3h-1.4v-0.7h1.4
				C52,114.1,52.1,113.9,52.1,113.6z M51.8,115.7v0.5c0,0.1,0,0.1-0.1,0.1h-0.5c-0.1,0-0.1,0-0.1-0.1v-0.5c0-0.1,0-0.1,0.1-0.1h0.5
				C51.7,115.6,51.8,115.7,51.8,115.7z M53,115.7v0.5c0,0.1,0,0.1-0.1,0.1h-0.4c-0.1,0-0.1,0-0.1-0.1v-0.5c0-0.1,0-0.1,0.1-0.1h0.4
				C52.9,115.6,53,115.7,53,115.7z"/>
			<path class="st5" d="M55.1,113.6v-5.2c0-0.1,0-0.1,0.1-0.1h0.4c0.1,0,0.1,0,0.1,0.1v5.2c0,0.7-0.5,1.1-1.1,1.1h-1v-0.7h1h0
				C55,114.1,55.1,113.9,55.1,113.6z"/>
			<path class="st5" d="M61.1,114.1h0.4v0.7h-0.3c-0.4,0-0.7-0.1-0.9-0.4c-0.1-0.1-0.1-0.1-0.1-0.1c-0.3,0.3-0.7,0.5-1.2,0.5h-1.9
				c-0.1,0-0.1,0-0.1-0.1v-0.4c0-0.1,0-0.1,0.1-0.1H59c0.6,0,0.9-0.2,0.9-0.8v-1.4c0-0.5-0.5-1-1-1c-0.4,0-0.7,0.1-0.9,0.2l-0.2,0.1
				c0,0,0,0-0.1,0h0c0,0-0.1,0-0.1,0l-0.2-0.3c0,0,0,0,0-0.1v0c0,0,0-0.1,0.1-0.1l0.2-0.1c0.3-0.2,0.7-0.3,1.2-0.3
				c0.4,0,0.8,0.2,1.2,0.5c0.3,0.3,0.5,0.7,0.5,1.1v1.7C60.5,113.9,60.8,114.1,61.1,114.1z"/>
			<path class="st5" d="M67.5,114.8h-6.2v-0.7h2.1l-0.9-1.9c0,0,0-0.1,0-0.1v0c0.1-0.5,0.3-0.8,0.7-1.2c0.4-0.4,0.9-0.6,1.4-0.6
				c0.5,0,1,0.2,1.4,0.5c0.4,0.4,0.6,0.8,0.7,1.2v0c0,0,0,0.1,0,0.1l-0.9,1.9h1.9V114.8z M63.7,111.3c-0.2,0.2-0.4,0.5-0.5,0.7
				l1,2.1h0.8l1-2.1c0-0.3-0.2-0.5-0.5-0.8c-0.3-0.2-0.6-0.3-0.9-0.3C64.2,110.9,63.9,111.1,63.7,111.3z"/>
			<path class="st5" d="M68.8,113.6v-5.2c0-0.1,0-0.1,0.1-0.1h0.4c0.1,0,0.1,0,0.1,0.1v5.2c0,0.7-0.5,1.1-1.1,1.1h-1v-0.7h1h0
				C68.6,114.1,68.8,113.9,68.8,113.6z"/>
			<path class="st5" d="M71.4,114.8H71c-0.1,0-0.1,0-0.1-0.1v-6.3c0-0.1,0-0.1,0.1-0.1h0.4c0.1,0,0.1,0,0.1,0.1v6.3
				C71.5,114.7,71.5,114.8,71.4,114.8z"/>
			<path class="st5" d="M80.5,113.6v-3c0-0.1,0-0.1,0.1-0.1H81c0.1,0,0.1,0,0.1,0.1v3c0,0.7-0.5,1.1-1.1,1.1h-3.2
				c-0.5,0-1-0.2-1.4-0.6c-0.4-0.4-0.6-0.8-0.6-1.4c0-0.4,0.1-0.7,0.3-1s0.5-0.6,0.8-0.7l0.2-0.1c0,0,0,0,0.1,0c0.1,0,0.1,0,0.1,0.1
				l0.2,0.4c0,0,0,0,0,0c0,0.1,0,0.1-0.1,0.1l-0.2,0.1c-0.4,0.2-0.7,0.6-0.7,1.2c0,0.7,0.6,1.3,1.3,1.3H80
				C80.3,114.1,80.5,114,80.5,113.6z M77.5,110.1v-0.5c0-0.1,0-0.1,0.1-0.1h0.4c0.1,0,0.1,0,0.1,0.1v0.5c0,0.1,0,0.1-0.1,0.1h-0.4
				C77.5,110.2,77.5,110.1,77.5,110.1z M78.7,110.1v-0.5c0-0.1,0-0.1,0.1-0.1h0.5c0.1,0,0.1,0,0.1,0.1v0.5c0,0.1,0,0.1-0.1,0.1h-0.5
				C78.7,110.2,78.7,110.1,78.7,110.1z"/>
			<path class="st5" d="M83.7,114.1h0.4v0.7h-0.4c-0.7,0-1.1-0.4-1.1-1.1v-5.2c0-0.1,0-0.1,0.1-0.1h0.4c0.1,0,0.1,0,0.1,0.1v5.2
				C83.2,114,83.4,114.1,83.7,114.1z"/>
			<path class="st5" d="M88.6,110.9c0.4,0.4,0.6,0.8,0.6,1.3v0.7c0,0.5-0.2,1-0.6,1.3s-0.8,0.6-1.4,0.6h-3.4v-0.7h1.5v-1.9
				c0-0.5,0.2-1,0.6-1.3s0.8-0.6,1.3-0.6S88.3,110.5,88.6,110.9z M88.5,112.9v-0.7c0-0.7-0.6-1.2-1.2-1.2c-0.7,0-1.2,0.6-1.2,1.2
				v1.9h1.2C88,114.1,88.5,113.5,88.5,112.9z"/>
			<path class="st5" d="M94.6,114.1H95v0.7h-0.3c-0.4,0-0.7-0.1-0.9-0.4c-0.1-0.1-0.1-0.1-0.1-0.1c-0.3,0.3-0.7,0.5-1.2,0.5h-1.9
				c-0.1,0-0.1,0-0.1-0.1v-0.4c0-0.1,0-0.1,0.1-0.1h1.9c0.6,0,0.9-0.2,0.9-0.8v-1.4c0-0.5-0.5-1-1-1c-0.4,0-0.7,0.1-0.9,0.2
				l-0.2,0.1c0,0,0,0-0.1,0h0c0,0-0.1,0-0.1,0l-0.2-0.3c0,0,0,0,0-0.1v0c0,0,0-0.1,0.1-0.1l0.2-0.1c0.3-0.2,0.7-0.3,1.2-0.3
				c0.4,0,0.8,0.2,1.2,0.5c0.3,0.3,0.5,0.7,0.5,1.1v1.7C94,113.9,94.2,114.1,94.6,114.1z"/>
			<path class="st5" d="M99.4,113.2v-0.9c0-0.4-0.1-0.7-0.4-1c-0.3-0.3-0.6-0.4-1-0.4c-0.6,0-1.1,0.2-1.4,0.7l-0.1,0.2
				c0,0-0.1,0.1-0.1,0.1c0,0,0,0-0.1,0l-0.3-0.2c0,0-0.1-0.1-0.1-0.1c0,0,0-0.1,0-0.1l0.1-0.2c0.5-0.6,1.1-0.9,2-0.9
				c0.6,0,1.1,0.2,1.5,0.6s0.6,0.9,0.6,1.5v1.4c0,0.1,0,0.2,0.1,0.2c0.1,0.1,0.3,0.1,0.5,0.1h0.4v0.7h-0.3c-0.5,0-0.9-0.1-1.1-0.5
				c-0.3,0.3-0.7,0.5-1.2,0.5h-3.8v-0.7h3.8C99.2,114.1,99.4,113.8,99.4,113.2z M97.6,109.3v-0.5c0-0.1,0-0.1,0.1-0.1h0.5
				c0.1,0,0.1,0,0.1,0.1v0.5c0,0.1,0,0.1-0.1,0.1h-0.5C97.6,109.4,97.6,109.4,97.6,109.3z"/>
			<path class="st5" d="M102.4,113.6v-5.2c0-0.1,0-0.1,0.1-0.1h0.4c0.1,0,0.1,0,0.1,0.1v5.2c0,0.7-0.5,1.1-1.1,1.1h-1v-0.7h1h0
				C102.3,114.1,102.4,113.9,102.4,113.6z"/>
			<path class="st5" d="M105.1,114.8h-0.4c-0.1,0-0.1,0-0.1-0.1v-6.3c0-0.1,0-0.1,0.1-0.1h0.4c0.1,0,0.1,0,0.1,0.1v6.3
				C105.2,114.7,105.2,114.8,105.1,114.8z"/>
		</g>
		<g>
			<path class="st5" d="M5.1,118.5h0.7v4.9c0,0.5-0.1,0.8-0.3,1.1s-0.5,0.4-1,0.4c0,0-0.1,0-0.2,0c-0.1,0-0.1,0-0.2,0
				c-0.1,0-0.1,0-0.2,0c-0.1,0-0.1,0-0.2-0.1l0.1-0.6c0.2,0.1,0.4,0.1,0.5,0.1c0.3,0,0.4-0.1,0.5-0.3c0.1-0.2,0.1-0.4,0.1-0.7V118.5
				z"/>
			<path class="st5" d="M8.1,120.3v2.6c0,0.2,0,0.4,0,0.6c0,0.2,0.1,0.3,0.1,0.4c0.1,0.1,0.2,0.2,0.3,0.3c0.1,0.1,0.3,0.1,0.4,0.1
				c0.2,0,0.3,0,0.4-0.1s0.2-0.1,0.3-0.2c0.1-0.1,0.2-0.2,0.3-0.3c0.1-0.1,0.1-0.2,0.2-0.4v-3h0.7v3.2c0,0.2,0,0.4,0,0.7
				c0,0.2,0,0.4,0.1,0.6h-0.5l-0.2-0.7h0c-0.1,0.2-0.3,0.4-0.6,0.6s-0.5,0.2-0.9,0.2c-0.2,0-0.5,0-0.6-0.1c-0.2-0.1-0.3-0.2-0.5-0.3
				c-0.1-0.1-0.2-0.3-0.3-0.6s-0.1-0.6-0.1-0.9v-2.7H8.1z"/>
			<path class="st5" d="M15.7,123.3c0,0.3,0,0.6,0,0.8c0,0.2,0,0.5,0.1,0.7h-0.5l-0.2-0.6h0c-0.1,0.2-0.3,0.4-0.5,0.5
				c-0.2,0.1-0.5,0.2-0.8,0.2c-0.6,0-1-0.2-1.3-0.6s-0.4-1-0.4-1.8c0-0.8,0.2-1.4,0.5-1.8c0.4-0.4,0.9-0.6,1.5-0.6
				c0.2,0,0.4,0,0.5,0c0.1,0,0.3,0.1,0.4,0.1v-1.9h0.7V123.3z M13.9,124.3c0.3,0,0.5-0.1,0.7-0.2c0.2-0.2,0.3-0.4,0.4-0.7v-2.2
				c-0.1-0.1-0.2-0.1-0.4-0.2c-0.1,0-0.3-0.1-0.5-0.1c-0.4,0-0.7,0.1-1,0.4c-0.2,0.3-0.4,0.7-0.4,1.3c0,0.2,0,0.5,0.1,0.7
				s0.1,0.4,0.2,0.5c0.1,0.1,0.2,0.3,0.4,0.4S13.7,124.3,13.9,124.3z"/>
			<path class="st5" d="M17.1,119c0-0.1,0-0.3,0.1-0.4c0.1-0.1,0.2-0.1,0.4-0.1s0.3,0,0.4,0.1c0.1,0.1,0.2,0.2,0.2,0.4
				c0,0.1-0.1,0.3-0.2,0.3c-0.1,0.1-0.2,0.1-0.4,0.1s-0.3,0-0.4-0.1C17.2,119.2,17.1,119.1,17.1,119z M17.3,120.3H18v4.5h-0.7V120.3
				z"/>
			<path class="st5" d="M22.6,124.5c-0.2,0.1-0.4,0.2-0.6,0.3c-0.2,0.1-0.5,0.1-0.8,0.1c-0.3,0-0.6-0.1-0.9-0.2
				c-0.2-0.1-0.4-0.3-0.6-0.5s-0.3-0.5-0.3-0.7s-0.1-0.6-0.1-1c0-0.8,0.2-1.3,0.5-1.8c0.3-0.4,0.8-0.6,1.4-0.6c0.3,0,0.5,0,0.7,0.1
				c0.2,0,0.4,0.1,0.5,0.2l-0.2,0.6c-0.1-0.1-0.3-0.1-0.5-0.2s-0.3-0.1-0.5-0.1c-0.9,0-1.3,0.6-1.3,1.7c0,0.2,0,0.4,0.1,0.7
				s0.1,0.4,0.2,0.5c0.1,0.2,0.2,0.3,0.4,0.4s0.4,0.1,0.6,0.1c0.2,0,0.4,0,0.6-0.1c0.2-0.1,0.3-0.1,0.4-0.2L22.6,124.5z"/>
			<path class="st5" d="M23.6,119c0-0.1,0-0.3,0.1-0.4c0.1-0.1,0.2-0.1,0.4-0.1s0.3,0,0.4,0.1c0.1,0.1,0.2,0.2,0.2,0.4
				c0,0.1-0.1,0.3-0.2,0.3c-0.1,0.1-0.2,0.1-0.4,0.1s-0.3,0-0.4-0.1C23.6,119.2,23.6,119.1,23.6,119z M23.7,120.3h0.7v4.5h-0.7
				V120.3z"/>
			<path class="st5" d="M25.9,120.7c0.2-0.1,0.5-0.2,0.8-0.3c0.3-0.1,0.6-0.1,0.9-0.1c0.3,0,0.6,0,0.8,0.1s0.3,0.2,0.4,0.3
				c0.1,0.1,0.2,0.3,0.2,0.4c0,0.2,0,0.3,0,0.5c0,0.4,0,0.7,0,1.1s0,0.7,0,1c0,0.2,0,0.4,0,0.6c0,0.2,0.1,0.4,0.1,0.5h-0.5l-0.2-0.6
				h0c-0.1,0.1-0.1,0.2-0.2,0.2s-0.2,0.2-0.3,0.2c-0.1,0.1-0.2,0.1-0.4,0.2s-0.3,0.1-0.5,0.1c-0.2,0-0.4,0-0.5-0.1
				c-0.2-0.1-0.3-0.1-0.4-0.3s-0.2-0.2-0.3-0.4c-0.1-0.2-0.1-0.3-0.1-0.5c0-0.3,0.1-0.5,0.2-0.7c0.1-0.2,0.3-0.3,0.5-0.4
				c0.2-0.1,0.4-0.2,0.7-0.2s0.6-0.1,0.9-0.1c0.1,0,0.2,0,0.2,0c0.1,0,0.2,0,0.2,0c0-0.2,0-0.3,0-0.5c0-0.3-0.1-0.6-0.2-0.7
				s-0.4-0.2-0.7-0.2c-0.1,0-0.2,0-0.3,0c-0.1,0-0.2,0-0.4,0.1c-0.1,0-0.2,0.1-0.4,0.1c-0.1,0-0.2,0.1-0.3,0.1L25.9,120.7z
				 M27.2,124.3c0.2,0,0.3,0,0.5-0.1c0.1,0,0.2-0.1,0.3-0.2c0.1-0.1,0.2-0.1,0.2-0.2s0.1-0.2,0.1-0.2v-0.7c-0.1,0-0.2,0-0.3,0
				s-0.2,0-0.3,0c-0.2,0-0.4,0-0.5,0c-0.2,0-0.3,0.1-0.5,0.1c-0.1,0.1-0.2,0.1-0.3,0.2c-0.1,0.1-0.1,0.2-0.1,0.4
				c0,0.2,0.1,0.4,0.2,0.5C26.8,124.2,27,124.3,27.2,124.3z"/>
			<path class="st5" d="M31.3,123.7c0,0.2,0,0.4,0.1,0.5c0.1,0.1,0.2,0.1,0.3,0.1c0.1,0,0.2,0,0.3,0s0.2,0,0.3-0.1l0.1,0.6
				c-0.1,0-0.2,0.1-0.4,0.1c-0.2,0-0.3,0-0.4,0c-0.3,0-0.5-0.1-0.7-0.2c-0.2-0.2-0.3-0.4-0.3-0.8v-5.4h0.7V123.7z"/>
			<path class="st5" d="M35.6,118.5H39v0.7h-2.7v2.1h2.5v0.7h-2.5v2.2H39v0.7h-3.5V118.5z"/>
			<path class="st5" d="M41.1,123.7c0,0.2,0,0.4,0.1,0.5c0.1,0.1,0.2,0.1,0.3,0.1c0.1,0,0.2,0,0.3,0s0.2,0,0.3-0.1l0.1,0.6
				c-0.1,0-0.2,0.1-0.4,0.1c-0.2,0-0.3,0-0.4,0c-0.3,0-0.5-0.1-0.7-0.2c-0.2-0.2-0.3-0.4-0.3-0.8v-5.4h0.7V123.7z"/>
			<path class="st5" d="M46.2,124.5c-0.2,0.1-0.4,0.3-0.7,0.3c-0.3,0.1-0.6,0.1-0.9,0.1c-0.3,0-0.6-0.1-0.9-0.2s-0.5-0.3-0.6-0.5
				s-0.3-0.5-0.4-0.7s-0.1-0.6-0.1-1c0-0.8,0.2-1.4,0.5-1.8s0.8-0.6,1.5-0.6c0.2,0,0.4,0,0.6,0.1c0.2,0,0.4,0.1,0.5,0.3
				s0.3,0.3,0.4,0.5c0.1,0.2,0.2,0.5,0.2,0.9c0,0.2,0,0.4-0.1,0.7h-2.9c0,0.3,0,0.5,0.1,0.7c0.1,0.2,0.1,0.4,0.3,0.5
				c0.1,0.1,0.3,0.2,0.4,0.3c0.2,0.1,0.4,0.1,0.7,0.1c0.2,0,0.4,0,0.6-0.1s0.4-0.2,0.5-0.3L46.2,124.5z M44.7,120.9
				c-0.4,0-0.6,0.1-0.9,0.3c-0.2,0.2-0.3,0.5-0.4,1h2.2c0-0.5-0.1-0.8-0.3-1C45.2,120.9,45,120.9,44.7,120.9z"/>
			<path class="st5" d="M50.5,124.5c-0.2,0.1-0.4,0.2-0.6,0.3c-0.2,0.1-0.5,0.1-0.8,0.1c-0.3,0-0.6-0.1-0.9-0.2s-0.4-0.3-0.6-0.5
				c-0.2-0.2-0.3-0.5-0.3-0.7c-0.1-0.3-0.1-0.6-0.1-1c0-0.8,0.2-1.3,0.5-1.8c0.3-0.4,0.8-0.6,1.4-0.6c0.3,0,0.5,0,0.7,0.1
				c0.2,0,0.4,0.1,0.5,0.2l-0.2,0.6c-0.1-0.1-0.3-0.1-0.5-0.2s-0.3-0.1-0.5-0.1c-0.9,0-1.3,0.6-1.3,1.7c0,0.2,0,0.4,0.1,0.7
				s0.1,0.4,0.2,0.5c0.1,0.2,0.2,0.3,0.4,0.4s0.4,0.1,0.6,0.1c0.2,0,0.4,0,0.6-0.1c0.2-0.1,0.3-0.1,0.4-0.2L50.5,124.5z"/>
			<path class="st5" d="M50.9,120.3h0.7v-0.9l0.7-0.2v1.1h1.2v0.6h-1.2v2.5c0,0.3,0,0.5,0.1,0.7c0.1,0.1,0.2,0.2,0.4,0.2
				c0.2,0,0.3,0,0.4,0c0.1,0,0.2-0.1,0.4-0.1l0.2,0.5c-0.2,0.1-0.3,0.1-0.5,0.2s-0.4,0.1-0.6,0.1c-0.4,0-0.6-0.1-0.8-0.3
				c-0.2-0.2-0.2-0.6-0.2-1V121h-0.7V120.3z"/>
			<path class="st5" d="M56.6,121c-0.2-0.1-0.4-0.1-0.5-0.1c-0.3,0-0.5,0.1-0.6,0.2c-0.2,0.1-0.2,0.3-0.3,0.5v3.2h-0.7v-4.5H55
				l0.1,0.5h0c0.1-0.2,0.2-0.4,0.4-0.5c0.2-0.1,0.4-0.2,0.6-0.2c0.2,0,0.4,0,0.6,0.1L56.6,121z"/>
			<path class="st5" d="M57.3,122.6c0-0.8,0.2-1.3,0.5-1.8c0.3-0.4,0.8-0.6,1.5-0.6c0.3,0,0.6,0.1,0.9,0.2s0.5,0.3,0.6,0.5
				s0.3,0.5,0.4,0.7s0.1,0.6,0.1,1c0,0.8-0.2,1.3-0.5,1.8c-0.3,0.4-0.8,0.6-1.5,0.6c-0.3,0-0.6-0.1-0.9-0.2s-0.5-0.3-0.6-0.5
				s-0.3-0.5-0.4-0.7S57.3,122.9,57.3,122.6z M58.1,122.6c0,0.2,0,0.4,0.1,0.7s0.1,0.4,0.2,0.5s0.2,0.3,0.4,0.4s0.3,0.1,0.6,0.1
				c0.8,0,1.2-0.6,1.2-1.7c0-0.2,0-0.5-0.1-0.7s-0.1-0.4-0.2-0.5c-0.1-0.2-0.2-0.3-0.4-0.4c-0.2-0.1-0.3-0.1-0.6-0.1
				C58.5,120.8,58.1,121.4,58.1,122.6z"/>
			<path class="st5" d="M65.3,124.8v-2.6c0-0.5-0.1-0.8-0.2-1.1c-0.1-0.2-0.4-0.4-0.7-0.4c-0.3,0-0.6,0.1-0.8,0.3s-0.4,0.4-0.4,0.6
				v3.1h-0.7v-4.5h0.5l0.1,0.5h0c0.1-0.2,0.3-0.3,0.6-0.5s0.5-0.2,0.9-0.2c0.2,0,0.5,0,0.6,0.1c0.2,0.1,0.3,0.2,0.5,0.3
				c0.1,0.1,0.2,0.3,0.3,0.6c0.1,0.2,0.1,0.6,0.1,0.9v2.7H65.3z"/>
			<path class="st5" d="M67.3,119c0-0.1,0-0.3,0.1-0.4c0.1-0.1,0.2-0.1,0.4-0.1c0.1,0,0.3,0,0.4,0.1c0.1,0.1,0.2,0.2,0.2,0.4
				c0,0.1-0.1,0.3-0.2,0.3c-0.1,0.1-0.2,0.1-0.4,0.1c-0.1,0-0.3,0-0.4-0.1C67.4,119.2,67.3,119.1,67.3,119z M67.5,120.3h0.7v4.5
				h-0.7V120.3z"/>
			<path class="st5" d="M72.8,124.5c-0.2,0.1-0.4,0.2-0.6,0.3c-0.2,0.1-0.5,0.1-0.8,0.1c-0.3,0-0.6-0.1-0.9-0.2s-0.4-0.3-0.6-0.5
				c-0.2-0.2-0.3-0.5-0.3-0.7c-0.1-0.3-0.1-0.6-0.1-1c0-0.8,0.2-1.3,0.5-1.8c0.3-0.4,0.8-0.6,1.4-0.6c0.3,0,0.5,0,0.7,0.1
				c0.2,0,0.4,0.1,0.5,0.2l-0.2,0.6c-0.1-0.1-0.3-0.1-0.5-0.2s-0.3-0.1-0.5-0.1c-0.9,0-1.3,0.6-1.3,1.7c0,0.2,0,0.4,0.1,0.7
				s0.1,0.4,0.2,0.5c0.1,0.2,0.2,0.3,0.4,0.4s0.4,0.1,0.6,0.1c0.2,0,0.4,0,0.6-0.1c0.2-0.1,0.3-0.1,0.4-0.2L72.8,124.5z"/>
			<path class="st5" d="M78.9,123.2c0-0.3-0.1-0.5-0.2-0.6c-0.1-0.2-0.3-0.3-0.6-0.4c-0.2-0.1-0.5-0.2-0.7-0.3
				c-0.3-0.1-0.5-0.2-0.7-0.4c-0.2-0.2-0.4-0.3-0.6-0.6c-0.2-0.2-0.2-0.5-0.2-0.9c0-0.5,0.2-0.9,0.5-1.2c0.3-0.3,0.8-0.4,1.5-0.4
				c0.4,0,0.7,0,1,0.1s0.5,0.1,0.7,0.2l-0.2,0.7c-0.1-0.1-0.3-0.1-0.6-0.2c-0.3-0.1-0.6-0.1-0.9-0.1c-0.4,0-0.7,0.1-0.9,0.3
				c-0.2,0.2-0.3,0.4-0.3,0.6c0,0.2,0.1,0.4,0.2,0.6c0.1,0.2,0.3,0.3,0.6,0.4s0.5,0.2,0.7,0.4c0.3,0.1,0.5,0.3,0.7,0.4
				c0.2,0.2,0.4,0.3,0.6,0.6c0.2,0.2,0.2,0.5,0.2,0.8c0,0.3,0,0.5-0.1,0.7c-0.1,0.2-0.2,0.4-0.4,0.6c-0.2,0.2-0.4,0.3-0.7,0.4
				c-0.3,0.1-0.6,0.1-0.9,0.1c-0.5,0-0.8,0-1.1-0.1c-0.3-0.1-0.5-0.1-0.7-0.2l0.3-0.7c0.1,0.1,0.3,0.2,0.6,0.2
				c0.3,0.1,0.6,0.1,0.9,0.1c0.2,0,0.4,0,0.6-0.1s0.3-0.1,0.5-0.2s0.2-0.2,0.3-0.3C78.9,123.6,78.9,123.4,78.9,123.2z"/>
			<path class="st5" d="M84,124.5c-0.2,0.1-0.4,0.3-0.7,0.3c-0.3,0.1-0.6,0.1-0.9,0.1c-0.3,0-0.6-0.1-0.9-0.2s-0.5-0.3-0.6-0.5
				s-0.3-0.5-0.4-0.7s-0.1-0.6-0.1-1c0-0.8,0.2-1.4,0.5-1.8s0.8-0.6,1.5-0.6c0.2,0,0.4,0,0.6,0.1c0.2,0,0.4,0.1,0.5,0.3
				s0.3,0.3,0.4,0.5c0.1,0.2,0.2,0.5,0.2,0.9c0,0.2,0,0.4-0.1,0.7h-2.9c0,0.3,0,0.5,0.1,0.7c0.1,0.2,0.1,0.4,0.3,0.5
				c0.1,0.1,0.3,0.2,0.4,0.3c0.2,0.1,0.4,0.1,0.7,0.1c0.2,0,0.4,0,0.6-0.1s0.4-0.2,0.5-0.3L84,124.5z M82.5,120.9
				c-0.4,0-0.6,0.1-0.9,0.3c-0.2,0.2-0.3,0.5-0.4,1h2.2c0-0.5-0.1-0.8-0.3-1C83.1,120.9,82.8,120.9,82.5,120.9z"/>
			<path class="st5" d="M87.5,121c-0.2-0.1-0.4-0.1-0.5-0.1c-0.3,0-0.5,0.1-0.6,0.2c-0.2,0.1-0.2,0.3-0.3,0.5v3.2h-0.7v-4.5h0.5
				l0.1,0.5h0c0.1-0.2,0.2-0.4,0.4-0.5c0.2-0.1,0.4-0.2,0.6-0.2c0.2,0,0.4,0,0.6,0.1L87.5,121z"/>
			<path class="st5" d="M89.7,123l0.3,0.9h0l0.2-0.9l1-2.6H92l-1.9,4.6h-0.3l-2-4.6h0.8L89.7,123z"/>
			<path class="st5" d="M92.7,119c0-0.1,0-0.3,0.1-0.4c0.1-0.1,0.2-0.1,0.4-0.1c0.1,0,0.3,0,0.4,0.1c0.1,0.1,0.2,0.2,0.2,0.4
				c0,0.1-0.1,0.3-0.2,0.3c-0.1,0.1-0.2,0.1-0.4,0.1c-0.1,0-0.3,0-0.4-0.1C92.8,119.2,92.7,119.1,92.7,119z M92.9,120.3h0.7v4.5
				h-0.7V120.3z"/>
			<path class="st5" d="M98.2,124.5c-0.2,0.1-0.4,0.2-0.6,0.3c-0.2,0.1-0.5,0.1-0.8,0.1c-0.3,0-0.6-0.1-0.9-0.2s-0.4-0.3-0.6-0.5
				c-0.2-0.2-0.3-0.5-0.3-0.7c-0.1-0.3-0.1-0.6-0.1-1c0-0.8,0.2-1.3,0.5-1.8c0.3-0.4,0.8-0.6,1.4-0.6c0.3,0,0.5,0,0.7,0.1
				c0.2,0,0.4,0.1,0.5,0.2l-0.2,0.6c-0.1-0.1-0.3-0.1-0.5-0.2s-0.3-0.1-0.5-0.1c-0.9,0-1.3,0.6-1.3,1.7c0,0.2,0,0.4,0.1,0.7
				s0.1,0.4,0.2,0.5c0.1,0.2,0.2,0.3,0.4,0.4s0.4,0.1,0.6,0.1c0.2,0,0.4,0,0.6-0.1c0.2-0.1,0.3-0.1,0.4-0.2L98.2,124.5z"/>
			<path class="st5" d="M102.3,124.5c-0.2,0.1-0.4,0.3-0.7,0.3c-0.3,0.1-0.6,0.1-0.9,0.1c-0.3,0-0.6-0.1-0.9-0.2s-0.5-0.3-0.6-0.5
				s-0.3-0.5-0.4-0.7s-0.1-0.6-0.1-1c0-0.8,0.2-1.4,0.5-1.8s0.8-0.6,1.5-0.6c0.2,0,0.4,0,0.6,0.1c0.2,0,0.4,0.1,0.5,0.3
				s0.3,0.3,0.4,0.5c0.1,0.2,0.2,0.5,0.2,0.9c0,0.2,0,0.4-0.1,0.7h-2.9c0,0.3,0,0.5,0.1,0.7c0.1,0.2,0.1,0.4,0.3,0.5
				c0.1,0.1,0.3,0.2,0.4,0.3c0.2,0.1,0.4,0.1,0.7,0.1c0.2,0,0.4,0,0.6-0.1s0.4-0.2,0.5-0.3L102.3,124.5z M100.7,120.9
				c-0.4,0-0.6,0.1-0.9,0.3c-0.2,0.2-0.3,0.5-0.4,1h2.2c0-0.5-0.1-0.8-0.3-1C101.3,120.9,101,120.9,100.7,120.9z"/>
			<path class="st5" d="M105.5,123.6c0-0.2-0.1-0.3-0.2-0.4c-0.1-0.1-0.2-0.2-0.4-0.3s-0.3-0.1-0.5-0.2c-0.2-0.1-0.4-0.1-0.5-0.2
				c-0.2-0.1-0.3-0.2-0.4-0.4c-0.1-0.2-0.2-0.4-0.2-0.6c0-0.4,0.1-0.7,0.4-0.9s0.6-0.3,1-0.3c0.3,0,0.6,0,0.8,0.1
				c0.2,0.1,0.4,0.1,0.6,0.2l-0.2,0.6c-0.1-0.1-0.3-0.1-0.5-0.2c-0.2-0.1-0.4-0.1-0.6-0.1c-0.3,0-0.5,0-0.6,0.1s-0.2,0.2-0.2,0.5
				c0,0.2,0.1,0.3,0.2,0.4c0.1,0.1,0.2,0.2,0.4,0.2c0.2,0.1,0.3,0.1,0.5,0.2c0.2,0.1,0.4,0.2,0.5,0.3c0.2,0.1,0.3,0.2,0.4,0.4
				c0.1,0.2,0.2,0.4,0.2,0.7c0,0.2,0,0.4-0.1,0.5c-0.1,0.2-0.2,0.3-0.3,0.4s-0.3,0.2-0.5,0.3c-0.2,0.1-0.4,0.1-0.7,0.1
				c-0.3,0-0.6,0-0.9-0.1c-0.2-0.1-0.4-0.1-0.6-0.2l0.2-0.6c0.1,0.1,0.3,0.2,0.5,0.2c0.2,0.1,0.4,0.1,0.7,0.1c0.3,0,0.5-0.1,0.6-0.2
				C105.5,124.1,105.5,123.9,105.5,123.6z"/>
		</g>
	</g>
</g>
</svg>
