<svg id="Layer_1" data-name="Layer 1" xmlns="http://www.w3.org/2000/svg" viewBox="0 0 110 70"><defs><style>.cls-1{fill:#a09ea4;}.cls-2{fill:#254081;}.cls-3{fill:#a5a4a9;}.cls-4{fill:#c4d94b;}.cls-5{fill:#6cbe55;}.cls-6{fill:#22bcbd;}.cls-7{fill:#56ba6c;}.cls-8{fill:#2e89c9;}.cls-9{fill:#1c4176;}.cls-10{fill:#69757d;}</style></defs><title>2030</title><path class="cls-1" d="M75.86,38.4v0.07c0,4.68-3.41,8.12-9,8.12a12.08,12.08,0,0,1-9.7-4.29L61,38.72a7.59,7.59,0,0,0,6,3c2.06,0,3.52-1.17,3.52-3V38.61c0-2-1.81-3.16-4.87-3.16H63.35L62.49,32l8-8L67.28,26H58.66V21.33H75.47v4.11l-6.29,6c3.38,0.57,6.68,2.34,6.68,7M60.26,10a3.89,3.89,0,0,1,3.88-4.06h2.55L66,6.26V12.4a5.83,5.83,0,0,0,.1,1.15,2.61,2.61,0,0,0,.17.54H64.17A3.94,3.94,0,0,1,60.26,10v0Zm3.88,5.15H66.4V14.31l0.07,0.11a1.59,1.59,0,0,0,.65.55,2.3,2.3,0,0,0,1,.19H88V4.89H86.91v9.19H68.15A1.26,1.26,0,0,1,67.64,14a0.69,0.69,0,0,1-.31-0.29,1.46,1.46,0,0,1-.16-0.52,5.39,5.39,0,0,1,0-.78V4.89H64.17A5,5,0,0,0,59.09,10v0a5,5,0,0,0,5,5.09M96,3.8H93.66V2.91a1.42,1.42,0,0,1,.33-1,1.33,1.33,0,0,1,1-.33h0.77V2.3H95a0.44,0.44,0,0,0-.34.09,0.5,0.5,0,0,0-.09.32V3H96V3.8Zm2.76,11.48a3.33,3.33,0,0,1-.89-0.12l0.29-1,0.3,0.07h0.26a1.27,1.27,0,0,0,.51-0.09,0.69,0.69,0,0,0,.31-0.29,1.46,1.46,0,0,0,.16-0.52,5.42,5.42,0,0,0,0-.78V4.89h1.09v7.62a5.92,5.92,0,0,1-.1,1.15,2.37,2.37,0,0,1-.35.87,1.6,1.6,0,0,1-.65.55,2.3,2.3,0,0,1-1,.19M67.11,3.8H66V2.71h1.09V3.8Zm24,3.76a2.66,2.66,0,0,1,.67-0.84,3.1,3.1,0,0,1,.95-0.54A3.27,3.27,0,0,1,93.81,6h1.76L95,6.3v4.89H93.85A3.79,3.79,0,0,1,92.7,11a2.89,2.89,0,0,1-.95-0.5,2.29,2.29,0,0,1-.64-0.8,2.45,2.45,0,0,1-.23-1.09,2.31,2.31,0,0,1,.25-1.08m0,3.86a4.31,4.31,0,0,0,1.44.65,6.91,6.91,0,0,0,1.73.21h0.29L95,11.51V12.6a1.43,1.43,0,0,1-.49,1.23,2.26,2.26,0,0,1-1.38.37,3.93,3.93,0,0,1-.91-0.1,5.3,5.3,0,0,1-.92-0.33l-0.34,1a9.91,9.91,0,0,0,1.11.35,4.17,4.17,0,0,0,1,.12,3.09,3.09,0,0,0,2.32-.76,2.83,2.83,0,0,0,.72-2V4.89H94.3a5.63,5.63,0,0,0-1.84.29A4.46,4.46,0,0,0,91,6a3.5,3.5,0,0,0-.92,1.18,3.42,3.42,0,0,0-.33,1.49,3.51,3.51,0,0,0,.36,1.65,3.17,3.17,0,0,0,1,1.13M64.93,3.8H63.84V2.71h1.09V3.8ZM53.64,4.88h1.13V15.11H53.84l-7.26-9.2L47.22,7.4v7.71H46.1V4.88h1.08l6.93,8.8-0.47-1.25V4.88ZM11.08,15.18L6.67,4.88H8L8.59,6.4l3,7.29,0.29,0.7-0.11-1.12,3.48-8.38h1.24L12.1,15.18h-1ZM30.6,4.88h1.16V15.1H30.6V4.88ZM43,10a4,4,0,0,1-4,4.19A4.07,4.07,0,0,1,35,10v0a4,4,0,0,1,4-4.19A4.07,4.07,0,0,1,43,10v0ZM39,4.7A5.19,5.19,0,0,0,33.75,10v0a5.23,5.23,0,1,0,10.45,0v0A5.14,5.14,0,0,0,39,4.7M28.7,12.33v0c0,1.75-1.46,2.89-3.5,2.89A6,6,0,0,1,21,13.61l0.72-.85a4.88,4.88,0,0,0,3.51,1.45c1.38,0,2.28-.73,2.28-1.74v0c0-.95-0.51-1.49-2.66-1.94-2.36-.51-3.44-1.27-3.44-3v0c0-1.61,1.42-2.79,3.37-2.79A5.35,5.35,0,0,1,28.39,6l-0.67.89a4.51,4.51,0,0,0-3-1.11c-1.33,0-2.18.73-2.18,1.65v0c0,1,.53,1.5,2.78,2s3.34,1.33,3.34,2.89m-9.46,2.78H18.08V4.88h1.16V15.11Zm67.3,1.15h1.09v1.09H86.53V16.25Zm-2.18,0h1.09v1.09H84.35V16.25ZM15.82,41.45h9.49v4.72H6.9V41.84l8.28-6.77c3.09-2.55,4.3-3.9,4.3-6a3,3,0,0,0-3.34-3.23c-1.92,0-3.23,1.06-5.08,3.33L7.22,26.12C9.67,22.79,12.05,21,16.5,21c5.15,0,8.57,3,8.57,7.66v0.07c0,4.15-2.13,6.21-6.54,9.61l-5.44,4.19L12,43.33ZM98,33.82a7.43,7.43,0,0,1-7.46,7.73A7.55,7.55,0,0,1,83,33.75V33.68a7.43,7.43,0,0,1,7.46-7.73A7.55,7.55,0,0,1,98,33.75v0.07ZM90.53,20.91A12.85,12.85,0,0,0,77.27,33.75v0.07c0,7.06,5.51,12.77,13.19,12.77a12.85,12.85,0,0,0,13.26-12.84V33.68c0-7.06-5.51-12.77-13.19-12.77"/><polygon class="cls-2" points="40.18 19.28 41.44 20.48 40.23 21.74 38.97 20.53 40.18 19.28"/><polygon class="cls-3" points="43.07 20.53 44.33 21.74 45.53 20.48 44.27 19.28 43.07 20.53"/><polygon class="cls-4" points="41.29 22.12 42.27 23.06 43.21 22.08 42.23 21.14 41.29 22.12"/><polygon class="cls-5" points="44.89 22.66 45.87 23.59 46.81 22.62 45.83 21.68 44.89 22.66"/><rect class="cls-4" x="39.97" y="22.92" width="1.36" height="1.36" transform="translate(-4.51 36.62) rotate(-46.23)"/><polygon class="cls-6" points="42.98 23.73 43.96 24.67 44.9 23.69 43.92 22.75 42.98 23.73"/><polygon class="cls-5" points="41.69 24.86 42.38 25.52 43.04 24.83 42.35 24.17 41.69 24.86"/><polygon class="cls-7" points="44.3 25.37 44.98 26.04 45.65 25.35 44.96 24.68 44.3 25.37"/><rect class="cls-8" x="50.16" y="19.92" width="2.18" height="2.17" transform="translate(-2.95 9.58) rotate(-10.38)"/><rect class="cls-9" x="47.33" y="20.86" width="1.75" height="1.74" transform="translate(-3.13 9.05) rotate(-10.39)"/><rect class="cls-6" x="50.65" y="23.25" width="1.75" height="1.74" transform="translate(-3.5 9.68) rotate(-10.39)"/><rect class="cls-4" x="48.25" y="23.54" width="1.36" height="1.36" transform="translate(-3.56 9.21) rotate(-10.38)"/><rect class="cls-3" x="50.85" y="26.07" width="1.36" height="1.36" transform="translate(-3.98 9.72) rotate(-10.38)"/><rect class="cls-6" x="46.25" y="24.08" width="1.36" height="1.36" transform="translate(-3.69 8.86) rotate(-10.38)"/><rect class="cls-5" x="48.67" y="25.83" width="1.36" height="1.36" transform="translate(-3.97 9.33) rotate(-10.38)"/><rect class="cls-3" x="46.94" y="26.03" width="0.96" height="0.95" transform="translate(-4.01 9) rotate(-10.4)"/><rect class="cls-7" x="48.74" y="27.97" width="0.96" height="0.95" transform="translate(-4.32 9.33) rotate(-10.38)"/><polygon class="cls-2" points="56.35 27.13 55.41 29.1 57.38 30.03 58.31 28.07 56.35 27.13"/><polygon class="cls-6" points="53.56 26.23 52.81 27.8 54.38 28.55 55.13 26.98 53.56 26.23"/><polygon class="cls-5" points="54.85 30.11 54.1 31.68 55.67 32.43 56.42 30.85 54.85 30.11"/><polygon class="cls-4" points="52.78 28.93 52.2 30.15 53.42 30.73 54.01 29.51 52.78 28.93"/><polygon class="cls-4" points="53.41 32.5 52.82 33.73 54.05 34.31 54.63 33.08 53.41 32.5"/><polygon class="cls-8" points="50.84 28.2 50.25 29.42 51.48 30 52.07 28.78 50.84 28.2"/><polygon class="cls-3" points="51.78 31.03 51.2 32.26 52.42 32.84 53.01 31.61 51.78 31.03"/><polygon class="cls-5" points="50.3 30.17 49.89 31.03 50.76 31.44 51.17 30.58 50.3 30.17"/><polygon class="cls-6" points="50.63 32.8 50.22 33.66 51.09 34.07 51.5 33.21 50.63 32.8"/><polygon class="cls-8" points="57.41 36.53 55.5 37.57 56.55 39.48 58.45 38.43 57.41 36.53"/><polygon class="cls-6" points="55.67 34.16 54.15 35 54.98 36.53 56.52 35.69 55.67 34.16"/><polygon class="cls-6" points="54.45 38.06 52.92 38.9 53.76 40.43 55.29 39.59 54.45 38.06"/><polygon class="cls-2" points="53.47 35.9 52.27 36.55 52.93 37.74 54.12 37.09 53.47 35.9"/><polygon class="cls-7" points="51.88 39.16 50.68 39.81 51.34 41 52.53 40.35 51.88 39.16"/><polygon class="cls-9" points="52.32 34.17 51.13 34.82 51.78 36.01 52.97 35.36 52.32 34.17"/><polygon class="cls-4" points="51.42 37.02 50.23 37.67 50.88 38.86 52.07 38.21 51.42 37.02"/><polygon class="cls-3" points="50.73 35.46 49.89 35.92 50.35 36.76 51.19 36.3 50.73 35.46"/><rect class="cls-6" x="48.79" y="37.95" width="0.96" height="0.95" transform="translate(-12.41 28.4) rotate(-28.72)"/><rect class="cls-5" x="50.46" y="44.62" width="2.17" height="2.18" transform="translate(-0.14 91.26) rotate(-82.95)"/><rect class="cls-9" x="50.9" y="41.72" width="1.74" height="1.75" transform="translate(3.13 88.73) rotate(-82.94)"/><rect class="cls-6" x="47.62" y="44.17" width="1.74" height="1.75" transform="translate(-2.17 87.63) rotate(-82.94)"/><rect class="cls-5" x="48.5" y="41.86" width="1.36" height="1.36" transform="translate(0.93 86.14) rotate(-82.96)"/><rect class="cls-3" x="45.29" y="43.58" width="1.36" height="1.36" transform="translate(-3.59 84.46) rotate(-82.97)"/><rect class="cls-3" x="48.58" y="39.79" width="1.36" height="1.36" transform="translate(3.04 84.38) rotate(-82.94)"/><rect class="cls-5" x="46.18" y="41.58" width="1.36" height="1.36" transform="translate(-0.84 83.57) rotate(-82.94)"/><rect class="cls-3" x="46.96" y="39.94" width="0.95" height="0.96" transform="translate(1.49 82.52) rotate(-82.93)"/><rect class="cls-3" x="44.56" y="41.07" width="0.95" height="0.96" transform="translate(-1.73 81.15) rotate(-82.95)"/><polygon class="cls-4" points="44.16 48.73 42.56 47.25 41.08 48.84 42.68 50.32 44.16 48.73"/><polygon class="cls-5" points="43.87 18.3 42.27 16.82 40.79 18.41 42.39 19.89 43.87 18.3"/><polygon class="cls-6" points="45.86 46.35 44.58 45.16 43.4 46.44 44.67 47.62 45.86 46.35"/><polygon class="cls-5" points="41.77 46.41 40.49 45.23 39.3 46.51 40.58 47.69 41.77 46.41"/><polygon class="cls-8" points="43.52 44.8 42.52 43.88 41.6 44.87 42.59 45.79 43.52 44.8"/><polygon class="cls-4" points="39.91 44.32 38.92 43.4 37.99 44.39 38.99 45.32 39.91 44.32"/><polygon class="cls-4" points="44.8 43.17 43.8 42.24 42.88 43.24 43.87 44.16 44.8 43.17"/><polygon class="cls-3" points="41.8 43.22 40.81 42.29 39.88 43.29 40.88 44.21 41.8 43.22"/><polygon class="cls-9" points="43.07 42.07 42.37 41.42 41.72 42.12 42.42 42.77 43.07 42.07"/><polygon class="cls-3" points="40.46 41.59 39.76 40.94 39.11 41.64 39.81 42.29 40.46 41.59"/><rect class="cls-8" x="32.49" y="44.99" width="2.18" height="2.17" transform="translate(-8.4 7.5) rotate(-11.33)"/><rect class="cls-6" x="35.74" y="44.43" width="1.75" height="1.74" transform="translate(-8.19 8.08) rotate(-11.33)"/><rect class="cls-5" x="32.38" y="42.1" width="1.75" height="1.74" transform="matrix(0.98, -0.2, 0.2, 0.98, -7.79, 7.37)"/><rect class="cls-4" x="35.17" y="42.15" width="1.36" height="1.36" transform="translate(-7.71 7.87) rotate(-11.33)"/><rect class="cls-2" x="37.16" y="41.57" width="1.36" height="1.36" transform="translate(-7.56 8.25) rotate(-11.32)"/><rect class="cls-8" x="34.7" y="39.87" width="1.36" height="1.36" transform="matrix(0.98, -0.2, 0.2, 0.98, -7.27, 7.74)"/><rect class="cls-5" x="36.84" y="40.04" width="0.96" height="0.95" transform="translate(-7.22 8.11) rotate(-11.31)"/><rect class="cls-3" x="35.01" y="38.13" width="0.96" height="0.95" transform="translate(-6.88 7.71) rotate(-11.31)"/><polygon class="cls-6" points="28.38 40.03 29.28 38.06 27.3 37.16 26.4 39.13 28.38 40.03"/><polygon class="cls-4" points="31.19 40.89 31.91 39.31 30.32 38.58 29.6 40.17 31.19 40.89"/><rect class="cls-8" x="28.53" y="35.01" width="1.74" height="1.75" transform="translate(-15.46 47.71) rotate(-65.45)"/><rect class="cls-6" x="30.9" y="36.61" width="1.36" height="1.36" transform="translate(-15.44 50.56) rotate(-65.5)"/><polygon class="cls-3" points="33.57 41.27 34.14 40.04 32.9 39.47 32.34 40.71 33.57 41.27"/><rect class="cls-2" x="30.22" y="33.04" width="1.36" height="1.36" transform="translate(-12.61 47.83) rotate(-65.47)"/><rect class="cls-7" x="32.86" y="37.3" width="1.36" height="1.36" transform="translate(-14.94 52.74) rotate(-65.49)"/><rect class="cls-4" x="31.87" y="34.48" width="1.36" height="1.36" transform="translate(-12.96 50.17) rotate(-65.47)"/><polygon class="cls-9" points="34.37 36.9 34.77 36.03 33.9 35.64 33.5 36.51 34.37 36.9"/><polygon class="cls-5" points="34 34.28 34.4 33.41 33.53 33.01 33.13 33.88 34 34.28"/><polygon class="cls-6" points="27.17 30.66 29.06 29.58 27.98 27.69 26.09 28.77 27.17 30.66"/><polygon class="cls-5" points="28.94 32.99 30.45 32.13 29.59 30.61 28.07 31.48 28.94 32.99"/><polygon class="cls-9" points="30.1 29.07 31.61 28.21 30.75 26.7 29.23 27.56 30.1 29.07"/><polygon class="cls-8" points="31.12 31.22 32.3 30.55 31.62 29.37 30.44 30.04 31.12 31.22"/><polygon class="cls-5" points="32.65 27.93 33.83 27.26 33.16 26.08 31.98 26.75 32.65 27.93"/><polygon class="cls-6" points="32.29 32.93 33.48 32.26 32.8 31.08 31.62 31.75 32.29 32.93"/><polygon class="cls-4" points="33.14 30.07 34.32 29.39 33.65 28.21 32.47 28.89 33.14 30.07"/><polygon class="cls-3" points="33.86 31.62 34.69 31.14 34.22 30.31 33.39 30.79 33.86 31.62"/><polygon class="cls-5" points="35.1 29.27 35.93 28.8 35.45 27.97 34.62 28.44 35.1 29.27"/><rect class="cls-5" x="31.79" y="20.29" width="2.17" height="2.18" transform="translate(8.12 51.8) rotate(-83.9)"/><rect class="cls-3" x="31.83" y="23.63" width="1.74" height="1.75" transform="translate(4.86 54.41) rotate(-83.89)"/><rect class="cls-6" x="35.07" y="21.13" width="1.74" height="1.75" transform="translate(10.24 55.4) rotate(-83.89)"/><rect class="cls-4" x="34.62" y="23.83" width="1.36" height="1.36" transform="translate(7.17 56.99) rotate(-83.88)"/><rect class="cls-8" x="37.79" y="22.06" width="1.36" height="1.36" transform="translate(11.78 58.58) rotate(-83.91)"/><rect class="cls-6" x="34.57" y="25.9" width="1.36" height="1.36" transform="translate(5.07 58.8) rotate(-83.89)"/><rect class="cls-5" x="36.94" y="24.07" width="1.36" height="1.36" transform="translate(9 59.52) rotate(-83.88)"/><rect class="cls-9" x="36.59" y="26.13" width="0.95" height="0.96" transform="translate(6.67 60.64) rotate(-83.89)"/><rect class="cls-3" x="38.97" y="24.95" width="0.95" height="0.96" transform="translate(9.99 61.96) rotate(-83.92)"/><path class="cls-10" d="M49.19,34.91a4.44,4.44,0,0,0-.86-0.37A5.14,5.14,0,0,0,46,34.36a5.78,5.78,0,0,0-1,.27l-0.1,0a5.76,5.76,0,0,0-.54.24l-0.46.26a11.15,11.15,0,0,0-1,.71,22.19,22.19,0,0,1-.11-5.52h0c0.82,0.52.59,2,.42,2.37h0a2.54,2.54,0,0,0,.31-2.88,0,0,0,0,1,0,0,2.36,2.36,0,0,1,.37.38,2.25,2.25,0,0,1,.46,1.22,3.76,3.76,0,0,1,0,.55v0.12h0a2.36,2.36,0,0,0,0-2.16,2.71,2.71,0,0,0-.46-0.63l-0.18-.18a0,0,0,0,1,0,0l0.18,0.05a1.74,1.74,0,0,1,.46.24,1.93,1.93,0,0,1,.65.87,2.2,2.2,0,0,1,.15.8h0a2,2,0,0,0-.17-1.63,1.92,1.92,0,0,0-.65-0.63,2.07,2.07,0,0,0-.46-0.21l-0.22,0s0,0,0,0h0.22a2.26,2.26,0,0,1,.46,0,1.69,1.69,0,0,1,.65.26,1.36,1.36,0,0,1,.43.46h0a1.3,1.3,0,0,0-.45-0.87,1.66,1.66,0,0,0-.65-0.34A1.86,1.86,0,0,0,43.82,28a1.46,1.46,0,0,0-.58.1,0,0,0,0,1,0,0,1.09,1.09,0,0,1,.59-0.42,1.34,1.34,0,0,1,.46-0.06,1,1,0,0,1,.38.09,0,0,0,0,0,0,0,1.45,1.45,0,0,0-.39-0.32,1.25,1.25,0,0,0-.46-0.15,1.16,1.16,0,0,0-1.12.55h0c-0.05-.1-0.11-0.2-0.15-0.31a3.71,3.71,0,0,1-.25-0.84h0a3.74,3.74,0,0,1-.25.85,3.39,3.39,0,0,1-.15.31h0a1.2,1.2,0,0,0-2-.09,0,0,0,0,0,0,0,1.22,1.22,0,0,1,1.43.38,0,0,0,0,1,0,0,1.71,1.71,0,0,0-1.84.46,1.3,1.3,0,0,0-.3.72h0A1.27,1.27,0,0,1,39.47,29a1.88,1.88,0,0,1,1.48-.4s0,0,0,0a2,2,0,0,0-1.48,1.19,2.13,2.13,0,0,0,0,1.32h0v0a2,2,0,0,1,1.44-1.93,0,0,0,0,1,0,0,2.4,2.4,0,0,0-.65,3h0a2.44,2.44,0,0,1,.82-2.28,0,0,0,0,1,0,0,2.54,2.54,0,0,0,.31,2.88s0,0,0,0c-0.17-.41-0.4-1.85.42-2.37h0a22.11,22.11,0,0,1-.11,5.52,8.42,8.42,0,0,0-2-1.21l-0.25-.09a5.41,5.41,0,0,0-1.93-.27,5,5,0,0,0-2,.5l-0.19.1a0,0,0,0,0,0,0l0.18-.05a5.51,5.51,0,0,1,2-.2,6,6,0,0,1,1.93.52,10.19,10.19,0,0,1,2.3,1.5,25.13,25.13,0,0,1-2.3,2l-0.07,0a0.54,0.54,0,0,0-1,.19,0.52,0.52,0,0,0,.1.46,0.77,0.77,0,0,0,.93.14A12.83,12.83,0,0,0,42,37.38l0.26-.24,0.26,0.24,1.29,1.2L44.28,39a4.08,4.08,0,0,0,.65.45,0.84,0.84,0,0,0,1,0l0,0a0.6,0.6,0,0,0,.11-0.46,0.54,0.54,0,0,0-.4-0.4,0.54,0.54,0,0,0-.56.21l-0.22-.14a7.59,7.59,0,0,1-.65-0.52l-0.46-.42c-0.32-.29-0.67-0.61-1-0.93a12.76,12.76,0,0,1,1-.78l0.46-.3c0.21-.12.43-0.24,0.65-0.35a6.56,6.56,0,0,1,1-.39,5.42,5.42,0,0,1,2.37-.15,6,6,0,0,1,.85.2,0,0,0,0,0,0,0"/><path class="cls-1" d="M41.53,57.83h0.62V52.24H41.53v5.59Zm-16.36-.62-1-2.39a2.48,2.48,0,0,1,.74-0.44,2.26,2.26,0,0,1,.79-0.14,2.2,2.2,0,0,1,.83.17,2.49,2.49,0,0,1,.7.42l-1,2.39H25.16Zm-3.44,0H21.09a2.19,2.19,0,0,1-.66-0.1,1.67,1.67,0,0,1-.54-0.28,1.31,1.31,0,0,1-.37-0.46,1.4,1.4,0,0,1-.13-0.62,1.33,1.33,0,0,1,.14-0.62,1.52,1.52,0,0,1,.38-0.48,1.77,1.77,0,0,1,.54-0.31,1.86,1.86,0,0,1,.63-0.11h0.63v3Zm17.36,0h-1a2,2,0,0,1-.86-0.16,1.15,1.15,0,0,1-.49-0.47A2.67,2.67,0,0,0,36.76,56V54H36.14V56.1a1.24,1.24,0,0,1-.29.86,1.11,1.11,0,0,1-.87.32,1.39,1.39,0,0,1-.5-0.09A1.23,1.23,0,0,1,34.09,57a1.1,1.1,0,0,1-.26-0.35,1.06,1.06,0,0,1-.1-0.43V54H33.1v2.16a1.22,1.22,0,0,1-.09.49,0.9,0.9,0,0,1-.23.33,0.93,0.93,0,0,1-.34.19,1.33,1.33,0,0,1-.4.06H30.84V54H30.21v3.22H26.93L28,54.6a5.41,5.41,0,0,0-.53-0.41,4.52,4.52,0,0,0-.58-0.33,3.38,3.38,0,0,0-.6-0.23,2.32,2.32,0,0,0-.6-0.08,2.35,2.35,0,0,0-.61.08,3.72,3.72,0,0,0-.61.22,3.81,3.81,0,0,0-.58.34,5.34,5.34,0,0,0-.52.41l1.1,2.61H22.34V53.6h-1a3.23,3.23,0,0,0-1.05.16,2.55,2.55,0,0,0-.82.45,2,2,0,0,0-.53.68,2,2,0,0,0-.19.85,2,2,0,0,0,.21.95,1.83,1.83,0,0,0,.56.65,2.47,2.47,0,0,0,.82.37,4,4,0,0,0,1,.12h0.37V58a0.82,0.82,0,0,1-.28.7,1.29,1.29,0,0,1-.79.21,2.27,2.27,0,0,1-.52-0.05,3.07,3.07,0,0,1-.53-0.19l-0.2.6a5.67,5.67,0,0,0,.64.2,2.39,2.39,0,0,0,.56.07,1.77,1.77,0,0,0,1.33-.43,1.62,1.62,0,0,0,.41-1.17V57.83H32a1.65,1.65,0,0,0,.81-0.19,1.6,1.6,0,0,0,.57-0.52,1.59,1.59,0,0,0,.62.59,1.94,1.94,0,0,0,.93.21,2.14,2.14,0,0,0,1-.2,1.34,1.34,0,0,0,.61-0.6,1.76,1.76,0,0,0,.19.26,1.11,1.11,0,0,0,.29.23,1.72,1.72,0,0,0,.43.16,2.41,2.41,0,0,0,.45.06h1.8V52.24H39.08v5Zm56-.28a1.58,1.58,0,0,1-.87.86,1.74,1.74,0,0,1-.65.12A1.56,1.56,0,0,1,93,57.78a1.58,1.58,0,0,1-.51-0.35,1.61,1.61,0,0,1-.34-0.52A1.65,1.65,0,0,1,92,56.28a1.68,1.68,0,0,1,.12-0.64,1.63,1.63,0,0,1,.33-0.52,1.56,1.56,0,0,1,.5-0.35,1.54,1.54,0,0,1,.64-0.13,1.72,1.72,0,0,1,.66.12,1.65,1.65,0,0,1,.52.34,1.56,1.56,0,0,1,.35.52,1.69,1.69,0,0,1,.13.66,1.63,1.63,0,0,1-.13.65m-6.06,0a1.57,1.57,0,0,1-.87.86,1.74,1.74,0,0,1-.65.12,1.56,1.56,0,0,1-.64-0.13,1.58,1.58,0,0,1-.51-0.35,1.61,1.61,0,0,1-.34-0.52,1.66,1.66,0,0,1-.12-0.63,1.69,1.69,0,0,1,.12-0.64,1.64,1.64,0,0,1,.33-0.52,1.56,1.56,0,0,1,.5-0.35,1.54,1.54,0,0,1,.64-0.13,1.72,1.72,0,0,1,.66.12,1.65,1.65,0,0,1,.52.34,1.56,1.56,0,0,1,.35.52,1.7,1.7,0,0,1,.12.66,1.62,1.62,0,0,1-.13.65m-15.19.28H73.26a2.1,2.1,0,0,1-.66-0.1,1.64,1.64,0,0,1-.54-0.29,1.37,1.37,0,0,1-.36-0.47,1.43,1.43,0,0,1-.13-0.63,1.3,1.3,0,0,1,.14-0.61,1.55,1.55,0,0,1,.38-0.48,1.73,1.73,0,0,1,.54-0.3,1.91,1.91,0,0,1,.62-0.11h0.62v3Zm24,0H95.68a2.19,2.19,0,0,0,.2-0.92,2.3,2.3,0,0,0-.18-0.9,2.2,2.2,0,0,0-1.2-1.2A2.3,2.3,0,0,0,93.6,54a2.15,2.15,0,0,0-.87.18,2.27,2.27,0,0,0-1.35,2.1,2.24,2.24,0,0,0,.05.48,2.68,2.68,0,0,0,.14.44H89.62a2.19,2.19,0,0,0,.19-0.92,2.29,2.29,0,0,0-.18-0.9,2.2,2.2,0,0,0-1.2-1.2,2.31,2.31,0,0,0-.9-0.18,2.15,2.15,0,0,0-.87.18,2.23,2.23,0,0,0-1.18,1.21,2.29,2.29,0,0,0-.17.89,2.22,2.22,0,0,0,.05.48,2.7,2.7,0,0,0,.14.44h-2v-5H82.89v5h-2v-1a2.44,2.44,0,0,0-.09-0.68,1.39,1.39,0,0,0-.3-0.55A1.57,1.57,0,0,0,80,54.62a2,2,0,0,0-.77-0.13H76.43l1.18-2.25H76.92l-1.2,2.24a1.35,1.35,0,0,0,.1.35,1.09,1.09,0,0,0,.18.28h3.19a1.31,1.31,0,0,1,.51.09,0.89,0.89,0,0,1,.35.25,0.83,0.83,0,0,1,.18.36,2,2,0,0,1,0,.45v1H74.5V53.6h-1a3.34,3.34,0,0,0-1.06.16,2.44,2.44,0,0,0-.81.44,2,2,0,0,0-.7,1.52,2,2,0,0,0,.21,1,1.9,1.9,0,0,0,.56.65,2.42,2.42,0,0,0,.82.38,3.79,3.79,0,0,0,1,.12H85.91a2.24,2.24,0,0,0,.72.52,2.16,2.16,0,0,0,.91.19,2.33,2.33,0,0,0,.93-0.19,2.2,2.2,0,0,0,.75-0.52H92a2.24,2.24,0,0,0,.72.52,2.15,2.15,0,0,0,.91.19,2.33,2.33,0,0,0,.93-0.19,2.21,2.21,0,0,0,.75-0.52h3.18V52.24H97.83v5Zm2.44,0.62h0.62V52.24h-0.62v5.59Zm-46,1.37h0.64V58.56H54.25V59.2Zm6.11-2-1-2.39a2.49,2.49,0,0,1,.74-0.44,2.26,2.26,0,0,1,.79-0.14,2.2,2.2,0,0,1,.84.17,2.5,2.5,0,0,1,.7.42l-1,2.39H60.36Zm4.43,0H62.13l1.09-2.61a5.38,5.38,0,0,0-.53-0.41,4.54,4.54,0,0,0-.58-0.33,3.4,3.4,0,0,0-.6-0.23,2.31,2.31,0,0,0-.6-0.08,2.36,2.36,0,0,0-.61.08,3.7,3.7,0,0,0-.6.22,3.81,3.81,0,0,0-.58.34,5.45,5.45,0,0,0-.52.41l1.1,2.61H57.38V53.6H56.75V58a3.11,3.11,0,0,1,0,.45,0.83,0.83,0,0,1-.09.3,0.39,0.39,0,0,1-.18.16,0.71,0.71,0,0,1-.29.05H56l-0.17,0-0.16.6a1.91,1.91,0,0,0,.51.07,1.31,1.31,0,0,0,.57-0.11,0.92,0.92,0,0,0,.37-0.32,1.35,1.35,0,0,0,.2-0.5A3.39,3.39,0,0,0,57.38,58V57.83h8V52.24H64.78v5ZM17.37,54.14a1.68,1.68,0,0,0-.56-0.41,1.86,1.86,0,0,0-.75-0.14H15.6v0.62h0.55a1,1,0,0,1,.43.1,1,1,0,0,1,.34.25,1,1,0,0,1,.18.36,1.89,1.89,0,0,1,.05.47v1.81H14.22v0.62h3.55V55.38a2.33,2.33,0,0,0-.1-0.69,1.43,1.43,0,0,0-.3-0.55M52,59.21h0.64V58.57H52v0.64Zm-3.8-2H47.55a2.09,2.09,0,0,1-.66-0.1,1.64,1.64,0,0,1-.54-0.29A1.37,1.37,0,0,1,46,56.35a1.44,1.44,0,0,1-.13-0.63A1.3,1.3,0,0,1,46,55.11a1.55,1.55,0,0,1,.38-0.48,1.74,1.74,0,0,1,.54-0.3,1.91,1.91,0,0,1,.62-0.11h0.62v3Zm6.71-3.61H54.26v3.61H51.9V53.6H51.28v3.61H48.8V53.6h-1a3.34,3.34,0,0,0-1.06.16,2.45,2.45,0,0,0-.81.44,2,2,0,0,0-.52.67,2,2,0,0,0-.18.84,2,2,0,0,0,.21,1,1.9,1.9,0,0,0,.56.65,2.42,2.42,0,0,0,.82.38,3.79,3.79,0,0,0,1,.12h7.07V53.6Zm-4,5.61h0.64V58.57H50.87v0.64Zm-41.74-7H8.5v0.64H9.14V52.24Zm64.27,0H72.76v0.64H73.4V52.24Zm-24.61,0H48.15v0.64h0.64V52.24Zm-36,7h0.64V58.57H12.82v0.64Zm34.88-7H47.06v0.64H47.7V52.24Zm-37.47,0H9.59v0.64h0.64V52.24Zm1.5,7h0.64V58.57H11.73v0.64Zm-2.12-2H9a2.09,2.09,0,0,1-.66-0.1,1.63,1.63,0,0,1-.54-0.29,1.36,1.36,0,0,1-.36-0.47,1.43,1.43,0,0,1-.13-0.63,1.3,1.3,0,0,1,.14-0.61,1.57,1.57,0,0,1,.38-0.48,1.74,1.74,0,0,1,.54-0.3A1.9,1.9,0,0,1,9,54.22H9.61v3Zm3.73-3.61H12.72v3.61H10.23V53.6h-1a3.34,3.34,0,0,0-1.06.16,2.46,2.46,0,0,0-.81.44,2,2,0,0,0-.52.67,2,2,0,0,0-.18.84,2,2,0,0,0,.21,1,1.9,1.9,0,0,0,.56.65,2.41,2.41,0,0,0,.82.38,3.79,3.79,0,0,0,1,.12h4.09V53.6Zm53.89,4.23h0.62V52.24H67.23v5.59Zm7.27-5.59H73.85v0.64H74.5V52.24Z"/><polygon class="cls-1" points="7.29 61.93 8.07 61.93 8.07 64.17 10.19 61.93 11.15 61.93 9.3 63.84 11.24 66.38 10.29 66.38 8.76 64.38 8.07 65.09 8.07 66.38 7.29 66.38 7.29 61.93"/><rect class="cls-1" x="11.95" y="61.93" width="0.78" height="4.45"/><polygon class="cls-1" points="13.94 61.93 14.67 61.93 17.06 65 17.06 61.93 17.83 61.93 17.83 66.38 17.17 66.38 14.71 63.21 14.71 66.38 13.94 66.38 13.94 61.93"/><path class="cls-1" d="M18.8,64.17h0a2.27,2.27,0,0,1,2.3-2.3,2.41,2.41,0,0,1,1.71.6l-0.5.59a1.75,1.75,0,0,0-1.25-.48,1.51,1.51,0,0,0-1.45,1.57h0a1.49,1.49,0,0,0,1.52,1.59,1.83,1.83,0,0,0,1.08-.34V64.57H21.08V63.89H23v1.87a2.84,2.84,0,0,1-1.86.69,2.21,2.21,0,0,1-2.31-2.29"/><path class="cls-1" d="M25.72,65.67a1.45,1.45,0,0,0,1.55-1.5h0a1.46,1.46,0,0,0-1.55-1.51H24.84v3h0.88Zm-1.66-3.74h1.66a2.22,2.22,0,0,1,2.37,2.21h0a2.23,2.23,0,0,1-2.37,2.23H24.06V61.93Z"/><path class="cls-1" d="M32.67,64.17h0a1.53,1.53,0,0,0-1.52-1.58,1.51,1.51,0,0,0-1.5,1.57h0a1.53,1.53,0,0,0,1.52,1.58,1.51,1.51,0,0,0,1.5-1.57m-3.84,0h0a2.33,2.33,0,0,1,4.66,0h0a2.33,2.33,0,0,1-4.66,0"/><polygon class="cls-1" points="34.47 61.93 35.3 61.93 36.66 64.03 38.01 61.93 38.85 61.93 38.85 66.38 38.06 66.38 38.06 63.19 36.66 65.28 36.63 65.28 35.24 63.2 35.24 66.38 34.47 66.38 34.47 61.93"/><path class="cls-1" d="M45.56,64.17h0A1.53,1.53,0,0,0,44,62.57a1.51,1.51,0,0,0-1.5,1.57h0a1.53,1.53,0,0,0,1.52,1.58,1.51,1.51,0,0,0,1.5-1.57m-3.84,0h0a2.33,2.33,0,0,1,4.66,0h0a2.33,2.33,0,0,1-4.66,0"/><polygon class="cls-1" points="47.35 61.93 50.67 61.93 50.67 62.64 48.14 62.64 48.14 63.85 50.39 63.85 50.39 64.57 48.14 64.57 48.14 66.38 47.35 66.38 47.35 61.93"/><path class="cls-1" d="M53.15,65.73l0.47-.56a2.06,2.06,0,0,0,1.41.58,0.66,0.66,0,0,0,.79-0.56h0c0-.32-0.18-0.49-1-0.68s-1.49-.51-1.49-1.33h0a1.36,1.36,0,0,1,1.52-1.29,2.48,2.48,0,0,1,1.62.56L56,63a2,2,0,0,0-1.21-.46,0.62,0.62,0,0,0-.73.53h0c0,0.34.2,0.5,1.06,0.7s1.43,0.57,1.43,1.3h0A1.39,1.39,0,0,1,55,66.44a2.75,2.75,0,0,1-1.86-.71"/><path class="cls-1" d="M60.12,64.61l-0.77-1.78-0.76,1.78h1.54ZM59,61.89h0.73l2,4.48H60.86L60.41,65.3H58.3l-0.46,1.07H57Z"/><path class="cls-1" d="M62.15,64.49V61.93h0.78v2.53a1.1,1.1,0,0,0,1.13,1.27,1.07,1.07,0,0,0,1.12-1.24V61.93H66v2.53a1.78,1.78,0,0,1-1.92,2,1.76,1.76,0,0,1-1.9-2"/><path class="cls-1" d="M68.78,65.67a1.45,1.45,0,0,0,1.55-1.5h0a1.46,1.46,0,0,0-1.55-1.51H67.9v3h0.88Zm-1.66-3.74h1.66a2.22,2.22,0,0,1,2.37,2.21h0a2.23,2.23,0,0,1-2.37,2.23H67.12V61.93Z"/><rect class="cls-1" x="72.15" y="61.93" width="0.78" height="4.45"/><path class="cls-1" d="M78.74,64.61L78,62.83,77.2,64.61h1.54Zm-1.12-2.72h0.73l2,4.48H79.48L79,65.3H76.91l-0.46,1.07h-0.8Z"/><path class="cls-1" d="M83,64.13a0.79,0.79,0,0,0,.92-0.74h0A0.77,0.77,0,0,0,83,62.64H81.83v1.49H83ZM81,61.93h2a1.8,1.8,0,0,1,1.29.45,1.35,1.35,0,0,1,.37,1h0a1.34,1.34,0,0,1-1.06,1.35l1.2,1.69H83.91l-1.1-1.55h-1v1.55H81V61.93Z"/><path class="cls-1" d="M88.49,64.61l-0.77-1.78L87,64.61h1.54Zm-1.12-2.72H88.1l2,4.48H89.23L88.78,65.3H86.67l-0.46,1.07h-0.8Z"/><path class="cls-1" d="M92.87,65.69a0.69,0.69,0,0,0,.86-0.61h0c0-.37-0.3-0.6-0.92-0.6H91.57v1.22h1.3ZM92.64,63.8a0.68,0.68,0,0,0,.84-0.6h0a0.64,0.64,0,0,0-.78-0.57H91.57V63.8h1.07ZM90.8,61.93h2a1.61,1.61,0,0,1,1.17.39,1,1,0,0,1,.3.74h0a1.06,1.06,0,0,1-.64,1,1.09,1.09,0,0,1,.89,1.08h0c0,0.8-.66,1.22-1.65,1.22H90.8V61.93Z"/><rect class="cls-1" x="95.49" y="61.93" width="0.78" height="4.45"/><path class="cls-1" d="M100.1,64.61l-0.77-1.78-0.76,1.78h1.54ZM99,61.89h0.73l2,4.48h-0.83l-0.45-1.07H98.28l-0.46,1.07H97Z"/></svg>